<?xml version="1.0"?><svg data-name="Layer 1" id="Layer_1" viewBox="0 0 272 272" xmlns="http://www.w3.org/2000/svg"><defs><style>.cls-1{fill:#564c4d;}</style></defs><title/><path class="cls-1" d="M260.33,11.67S147.15-9,90.13,48,16.84,181.21,53.82,218.18c.29.29.58.58.88.86a63.07,63.07,0,0,0,6.92,5.76c39.12,28,109.13,10.34,162.4-42.93C281,124.85,260.33,11.67,260.33,11.67Zm-42,164.54C184.69,209.89,143,230,106.75,230h0c-15.12,0-28.35-3.64-38.85-10.61A1042.19,1042.19,0,0,0,178.06,108l-6.56-6.07A1026.74,1026.74,0,0,1,60.81,213.8c-.45-.42-.9-.85-1.33-1.28-15.9-15.9-21.21-40.85-14.93-70.25,6.54-30.66,24.73-62.13,51.23-88.63C126.89,22.53,176.6,16,212.82,16a306.32,306.32,0,0,1,40.48,2.68C256.4,41.65,264.74,129.84,218.36,176.21Z"/><path class="cls-1" d="M178.06,108A1042.19,1042.19,0,0,1,67.89,219.39c-2.08,1.81-4.17,3.62-6.27,5.41Q37.9,245.11,13,264l-5-7.36Q31.89,238.52,54.7,219c2-1.73,4.08-3.48,6.11-5.24A1026.74,1026.74,0,0,0,171.5,101.88Z"/></svg>